HIERARCHY
ROOT hips
{
	OFFSET -0.003675 0.299928 -0.021708
	CHANNELS 6 Xposition Yposition Zposition Xrotation Yrotation Zrotation
	JOINT LowerBack
	{
		OFFSET 0.000919 0.177588 0.009275
		CHANNELS 3 Xrotation Yrotation Zrotation
		JOINT spine
		{
			OFFSET 0.000919 0.177588 0.009275
			CHANNELS 3 Xrotation Yrotation Zrotation
			JOINT chest
			{
				OFFSET 0.000456 0.100015 0.004638
				CHANNELS 3 Xrotation Yrotation Zrotation
				JOINT neck
				{
					OFFSET 0.000456 0.100015 0.004638
					CHANNELS 3 Xrotation Yrotation Zrotation
					JOINT head
					{
						OFFSET 0.000924 0.155147 0.009274
						CHANNELS 6 Xposition Yposition Zposition Xrotation Yrotation Zrotation
						End Site
						{
							OFFSET 0.000000 0.153400 0.000000
						}
					}
				}
				JOINT shoulder.L
				{
					OFFSET 0.019937 0.078966 0.057518
					CHANNELS 6 Xposition Yposition Zposition Yrotation Xrotation Zrotation
					JOINT upper_arm.L
					{
						OFFSET 0.177024 -0.020465 -0.095062
						CHANNELS 6 Xposition Yposition Zposition Xrotation Yrotation Zrotation
						JOINT forearm.L
						{
							OFFSET 0.247100 -0.135500 -0.061800
							CHANNELS 3 Xrotation Yrotation Zrotation
							JOINT hand.L
							{
								OFFSET 0.217000 -0.143000 0.039300
								CHANNELS 3 Xrotation Yrotation Zrotation
								JOINT palm.01.L
								{
									OFFSET 0.021770 -0.038291 0.012954
									CHANNELS 6 Xposition Yposition Zposition Yrotation Xrotation Zrotation
									JOINT f_index.01.L
									{
										OFFSET 0.053215 -0.044137 0.008236
										CHANNELS 3 Xrotation Yrotation Zrotation
										JOINT f_index.02.L
										{
											OFFSET 0.036108 -0.024723 -0.010656
											CHANNELS 3 Xrotation Yrotation Zrotation
											JOINT f_index.03.L
											{
												OFFSET 0.021342 -0.014948 -0.010846
												CHANNELS 3 Xrotation Yrotation Zrotation
												End Site
												{
													OFFSET 0.015600 -0.009860 -0.013421
												}
											}
										}
									}
									JOINT thumb.01.L
									{
										OFFSET -0.009090 -0.002348 -0.024223
										CHANNELS 6 Xposition Yposition Zposition Xrotation Yrotation Zrotation
										JOINT thumb.02.L
										{
											OFFSET 0.019713 -0.035076 -0.011120
											CHANNELS 3 Xrotation Yrotation Zrotation
											JOINT thumb.03.L
											{
												OFFSET 0.024877 -0.021748 -0.005176
												CHANNELS 3 Xrotation Yrotation Zrotation
												End Site
												{
													OFFSET 0.016125 -0.013029 -0.001569
												}
											}
										}
									}
								}
								JOINT palm.02.L
								{
									OFFSET 0.032823 -0.025104 0.012281
									CHANNELS 6 Xposition Yposition Zposition Yrotation Xrotation Zrotation
									JOINT f_middle.01.L
									{
										OFFSET 0.055723 -0.038469 0.008037
										CHANNELS 3 Xrotation Yrotation Zrotation
										JOINT f_middle.02.L
										{
											OFFSET 0.038167 -0.027473 -0.015582
											CHANNELS 3 Xrotation Yrotation Zrotation
											JOINT f_middle.03.L
											{
												OFFSET 0.021707 -0.016587 -0.017037
												CHANNELS 3 Xrotation Yrotation Zrotation
												End Site
												{
													OFFSET 0.014112 -0.010584 -0.014294
												}
											}
										}
									}
								}
								JOINT palm.03.L
								{
									OFFSET 0.039230 -0.011402 0.008390
									CHANNELS 6 Xposition Yposition Zposition Yrotation Xrotation Zrotation
									JOINT f_ring.01.L
									{
										OFFSET 0.061796 -0.031470 0.007910
										CHANNELS 3 Xrotation Yrotation Zrotation
										JOINT f_ring.02.L
										{
											OFFSET 0.033092 -0.023401 -0.019127
											CHANNELS 3 Xrotation Yrotation Zrotation
											JOINT f_ring.03.L
											{
												OFFSET 0.021392 -0.015362 -0.017824
												CHANNELS 3 Xrotation Yrotation Zrotation
												End Site
												{
													OFFSET 0.008670 -0.007297 -0.014686
												}
											}
										}
									}
								}
								JOINT palm.04.L
								{
									OFFSET 0.043417 0.002450 0.002889
									CHANNELS 6 Xposition Yposition Zposition Yrotation Xrotation Zrotation
									JOINT f_pinky.01.L
									{
										OFFSET 0.069986 -0.026156 0.003627
										CHANNELS 3 Xrotation Yrotation Zrotation
										JOINT f_pinky.02.L
										{
											OFFSET 0.018520 -0.012813 -0.016429
											CHANNELS 3 Xrotation Yrotation Zrotation
											JOINT f_pinky.03.L
											{
												OFFSET 0.013822 -0.009796 -0.014947
												CHANNELS 3 Xrotation Yrotation Zrotation
												End Site
												{
													OFFSET 0.007238 -0.006103 -0.011657
												}
											}
										}
									}
								}
							}
						}
					}
				}
				JOINT shoulder.R
				{
					OFFSET -0.016662 0.078957 0.057696
					CHANNELS 6 Xposition Yposition Zposition Yrotation Xrotation Zrotation
					JOINT upper_arm.R
					{
						OFFSET -0.176972 -0.020537 -0.095144
						CHANNELS 6 Xposition Yposition Zposition Xrotation Yrotation Zrotation
						JOINT forearm.R
						{
							OFFSET -0.247100 -0.135500 -0.061800
							CHANNELS 3 Xrotation Yrotation Zrotation
							JOINT hand.R
							{
								OFFSET -0.217000 -0.143000 0.039300
								CHANNELS 3 Xrotation Yrotation Zrotation
								JOINT palm.01.R
								{
									OFFSET -0.021773 -0.038278 0.012988
									CHANNELS 6 Xposition Yposition Zposition Yrotation Xrotation Zrotation
									JOINT f_index.01.R
									{
										OFFSET -0.053212 -0.044139 0.008249
										CHANNELS 3 Xrotation Yrotation Zrotation
										JOINT f_index.02.R
										{
											OFFSET -0.036049 -0.024835 -0.010634
											CHANNELS 3 Xrotation Yrotation Zrotation
											JOINT f_index.03.R
											{
												OFFSET -0.021371 -0.014881 -0.010866
												CHANNELS 3 Xrotation Yrotation Zrotation
												End Site
												{
													OFFSET -0.015584 -0.009883 -0.013422
												}
											}
										}
									}
									JOINT thumb.01.R
									{
										OFFSET 0.009113 -0.002381 -0.024211
										CHANNELS 6 Xposition Yposition Zposition Xrotation Yrotation Zrotation
										JOINT thumb.02.R
										{
											OFFSET -0.019694 -0.035097 -0.011088
											CHANNELS 3 Xrotation Yrotation Zrotation
											JOINT thumb.03.R
											{
												OFFSET -0.024867 -0.021762 -0.005168
												CHANNELS 3 Xrotation Yrotation Zrotation
												End Site
												{
													OFFSET -0.016120 -0.013036 -0.001565
												}
											}
										}
									}
								}
								JOINT palm.02.R
								{
									OFFSET -0.032828 -0.025095 0.012286
									CHANNELS 6 Xposition Yposition Zposition Yrotation Xrotation Zrotation
									JOINT f_middle.01.R
									{
										OFFSET -0.055721 -0.038472 0.008040
										CHANNELS 3 Xrotation Yrotation Zrotation
										JOINT f_middle.02.R
										{
											OFFSET -0.038101 -0.027593 -0.015557
											CHANNELS 3 Xrotation Yrotation Zrotation
											JOINT f_middle.03.R
											{
												OFFSET -0.021730 -0.016530 -0.017054
												CHANNELS 3 Xrotation Yrotation Zrotation
												End Site
												{
													OFFSET -0.014096 -0.010608 -0.014293
												}
											}
										}
									}
								}
								JOINT palm.03.R
								{
									OFFSET -0.039192 -0.011488 0.008390
									CHANNELS 6 Xposition Yposition Zposition Yrotation Xrotation Zrotation
									JOINT f_ring.01.R
									{
										OFFSET -0.061839 -0.031387 0.007876
										CHANNELS 3 Xrotation Yrotation Zrotation
										JOINT f_ring.02.R
										{
											OFFSET -0.033068 -0.023437 -0.019125
											CHANNELS 3 Xrotation Yrotation Zrotation
											JOINT f_ring.03.R
											{
												OFFSET -0.021371 -0.015393 -0.017822
												CHANNELS 3 Xrotation Yrotation Zrotation
												End Site
												{
													OFFSET -0.008654 -0.007321 -0.014684
												}
											}
										}
									}
								}
								JOINT palm.04.R
								{
									OFFSET -0.043421 0.002443 0.002845
									CHANNELS 6 Xposition Yposition Zposition Yrotation Xrotation Zrotation
									JOINT f_pinky.01.R
									{
										OFFSET -0.069983 -0.026169 0.003599
										CHANNELS 3 Xrotation Yrotation Zrotation
										JOINT f_pinky.02.R
										{
											OFFSET -0.018501 -0.012842 -0.016428
											CHANNELS 3 Xrotation Yrotation Zrotation
											JOINT f_pinky.03.R
											{
												OFFSET -0.013806 -0.009821 -0.014946
												CHANNELS 3 Xrotation Yrotation Zrotation
												End Site
												{
													OFFSET -0.007226 -0.006121 -0.011655
												}
											}
										}
									}
								}
							}
						}
					}
				}
			}
		}
	}
	JOINT pelvis.L
	{
		OFFSET 0.000000 0.000000 0.000000
		CHANNELS 6 Xposition Yposition Zposition Xrotation Yrotation Zrotation
		JOINT thigh.L
		{
			OFFSET 0.101675 0.001054 -0.000000
			CHANNELS 3 Xrotation Yrotation Zrotation
			JOINT shin.L
			{
				OFFSET 0.000000 -0.534800 0.041000
				CHANNELS 3 Xrotation Yrotation Zrotation
				JOINT foot.L
				{
					OFFSET 0.000000 -0.452000 -0.044800
					CHANNELS 3 Xrotation Yrotation Zrotation
					JOINT toe.L
					{
						OFFSET -0.000000 -0.068500 0.109600
						CHANNELS 3 Xrotation Yrotation Zrotation
						End Site
						{
							OFFSET -0.000000 0.000000 0.067200
						}
					}
				}
				JOINT heel.L
				{
					OFFSET 0.000000 -0.452000 -0.044800
					CHANNELS 3 Xrotation Yrotation Zrotation
					JOINT heel.02.L
					{
						OFFSET -0.038000 -0.085200 0.016200
						CHANNELS 6 Xposition Yposition Zposition Xrotation Yrotation Zrotation
						End Site
						{
							OFFSET 0.080000 -0.000000 0.000000
						}
					}
				}
			}
		}
	}
	JOINT pelvis.R
	{
		OFFSET 0.000000 0.000000 0.000000
		CHANNELS 6 Xposition Yposition Zposition Xrotation Yrotation Zrotation
		JOINT thigh.R
		{
			OFFSET -0.094325 0.001054 0.000000
			CHANNELS 3 Xrotation Yrotation Zrotation
			JOINT shin.R
			{
				OFFSET 0.000000 -0.534800 0.041000
				CHANNELS 3 Xrotation Yrotation Zrotation
				JOINT foot.R
				{
					OFFSET 0.000000 -0.452000 -0.044800
					CHANNELS 3 Xrotation Yrotation Zrotation
					JOINT toe.R
					{
						OFFSET -0.000000 -0.068500 0.109600
						CHANNELS 3 Xrotation Yrotation Zrotation
						End Site
						{
							OFFSET -0.000000 0.000000 0.067200
						}
					}
				}
				JOINT heel.R
				{
					OFFSET 0.000000 -0.452000 -0.044800
					CHANNELS 3 Xrotation Yrotation Zrotation
					JOINT heel.02.R
					{
						OFFSET 0.038000 -0.085200 0.016200
						CHANNELS 6 Xposition Yposition Zposition Xrotation Yrotation Zrotation
						End Site
						{
							OFFSET -0.080000 0.000000 -0.000000
						}
					}
				}
			}
		}
	}
}
MOTION
Frames: 4
Frame Time: 0.041667
-0.003675 0.299928 -0.021708 0.000000 -0.000000 0.000000 -0.000001 0.000000 0.000000 -0.000000 0.000000 0.000000 -0.000000 0.000000 0.000000 -0.000000 -0.000000 -0.000000 0.000924 0.155147 0.009274 -0.000001 -0.000000 -0.000000 0.019937 0.078966 0.057518 0.000001 0.000001 -0.000005 0.177024 -0.020465 -0.095062 -0.000006 -0.000003 0.000015 -0.000009 -0.000004 -0.000009 -0.000000 0.000000 0.000001 0.021770 -0.038291 0.012954 0.000001 -0.000001 0.000001 -0.000001 -0.000001 -0.000002 -0.000001 -0.000000 0.000007 -0.000000 0.000000 0.000003 -0.009090 -0.002348 -0.024224 -0.000002 0.000001 0.000001 0.000001 -0.000001 0.000001 -0.000000 0.000000 -0.000001 0.032823 -0.025104 0.012281 0.000000 -0.000000 0.000000 0.000001 0.000004 -0.000003 -0.000001 -0.000000 -0.000000 -0.000001 -0.000003 0.000003 0.039230 -0.011402 0.008390 -0.000000 -0.000000 0.000008 0.000001 0.000001 -0.000000 -0.000001 0.000003 -0.000001 0.000002 0.000002 -0.000000 0.043417 0.002450 0.002889 -0.000000 0.000001 0.000002 -0.000001 -0.000003 0.000001 -0.000000 0.000003 -0.000000 -0.000000 -0.000003 0.000001 -0.016662 0.078956 0.057696 -0.000001 0.000002 0.000011 -0.176972 -0.020537 -0.095144 0.000001 -0.000003 -0.000005 -0.000006 0.000005 -0.000014 -0.000001 -0.000000 0.000000 -0.021773 -0.038278 0.012988 0.000000 -0.000001 -0.000003 -0.000001 0.000001 -0.000003 -0.000001 -0.000000 0.000001 0.000001 0.000002 0.000007 0.009113 -0.002381 -0.024211 0.000002 -0.000001 0.000004 -0.000000 0.000001 0.000002 0.000000 0.000000 -0.000003 -0.032828 -0.025095 0.012286 0.000001 -0.000001 -0.000001 -0.000001 0.000003 -0.000003 -0.000002 0.000004 -0.000001 0.000001 -0.000002 -0.000000 -0.039192 -0.011488 0.008390 0.000000 0.000000 0.000001 -0.000000 0.000003 -0.000003 -0.000001 0.000001 0.000002 -0.000001 0.000000 -0.000003 -0.043421 0.002443 0.002844 -0.000000 -0.000001 0.000000 -0.000007 0.000003 -0.000002 -0.000003 -0.000000 -0.000000 0.000001 -0.000000 0.000001 -0.000000 0.000000 -0.000000 -0.000001 -0.000000 0.000001 0.000009 -0.000202 0.000014 -0.000026 0.000202 -0.000015 0.000000 -0.000000 -0.000000 0.000002 -0.000000 -0.000000 0.000000 0.000000 -0.000000 -0.038000 -0.085200 0.016200 0.000000 0.000000 0.000000 0.000000 -0.000000 -0.000000 -0.000001 0.000000 -0.000004 0.000008 -0.000013 0.000005 -0.000012 0.000013 -0.000001 -0.000003 -0.000000 -0.000000 0.000000 -0.000000 -0.000000 0.000002 -0.000000 -0.000000 0.038000 -0.085200 0.016200 0.000002 -0.000000 0.000000 
-0.008332 0.279665 -0.023450 47.784143 35.675984 -43.981924 -0.000001 0.000001 -0.000003 -0.000001 -0.000001 -0.000001 0.000005 0.000003 -0.000000 0.000006 0.000002 0.000001 0.000924 0.155147 0.009274 6.601668 -0.009519 -5.788982 0.019937 0.078966 0.057518 20.779281 4.028054 22.686214 0.177025 -0.020465 -0.095062 -37.521463 10.103743 -54.738075 -46.307648 -20.280864 -38.085148 -0.000001 0.000001 -0.000001 0.021770 -0.038291 0.012954 -0.000001 0.000000 0.000001 0.000001 0.000000 0.000006 -0.000000 -0.000000 0.000007 0.000000 -0.000002 -0.000001 -0.009090 -0.002348 -0.024223 0.000003 0.000003 0.000008 0.000000 0.000002 -0.000000 0.000001 -0.000001 -0.000004 0.032823 -0.025104 0.012281 -0.000003 0.000001 0.000007 -0.000002 0.000002 -0.000002 -0.000002 -0.000000 -0.000002 -0.000002 -0.000003 0.000001 0.039230 -0.011402 0.008390 -0.000001 0.000001 0.000001 -0.000005 -0.000001 -0.000000 0.000000 0.000003 0.000003 0.000001 -0.000005 0.000003 0.043417 0.002450 0.002889 -0.000003 0.000001 -0.000002 0.000003 -0.000005 -0.000000 0.000001 0.000001 -0.000001 -0.000000 0.000004 -0.000002 -0.016662 0.078957 0.057696 35.175792 5.111796 -39.072575 -0.176972 -0.020537 -0.095144 -64.651026 -30.550405 62.504250 -13.859628 10.272913 28.776267 -0.000001 0.000002 -0.000000 -0.021773 -0.038278 0.012988 -0.000002 0.000003 -0.000002 -0.000003 -0.000002 -0.000001 -0.000003 -0.000000 0.000001 0.000001 0.000002 0.000001 0.009114 -0.002381 -0.024212 0.000002 -0.000002 -0.000003 0.000002 0.000002 0.000002 0.000003 -0.000001 -0.000004 -0.032828 -0.025095 0.012286 0.000004 0.000003 -0.000003 0.000003 0.000000 0.000001 0.000002 -0.000005 0.000001 -0.000003 0.000001 -0.000006 -0.039192 -0.011488 0.008390 0.000002 0.000004 -0.000002 0.000003 -0.000001 0.000000 0.000003 -0.000003 -0.000002 0.000001 0.000004 -0.000000 -0.043421 0.002443 0.002844 0.000000 0.000003 0.000000 -0.000006 0.000007 -0.000003 -0.000000 0.000003 0.000002 0.000001 0.000003 -0.000001 -0.000000 0.000000 -0.000000 -1.839711 -0.991715 10.602354 -71.332843 -0.276456 -0.143645 38.872594 -1.408943 14.370218 0.000000 0.000001 -0.000001 -0.000003 -0.000003 0.000001 0.000000 -0.000003 -0.000001 -0.038000 -0.085200 0.016200 0.000000 0.000001 0.000001 0.000000 0.000000 -0.000000 -1.831833 -0.990158 11.836675 -36.297722 0.006541 -2.760432 43.959190 -0.600174 6.067759 0.000003 -0.000002 -0.000000 0.000001 -0.000002 0.000004 0.000007 -0.000003 0.000003 0.038000 -0.085200 0.016200 -0.000004 0.000002 -0.000001 
-0.007778 0.278385 -0.023450 48.014276 35.521157 -44.187769 -0.000006 0.000002 -0.000003 -0.000004 0.000001 -0.000001 0.000003 -0.000002 0.000001 0.000005 -0.000000 0.000001 0.000924 0.155148 0.009274 7.956600 -0.012145 -5.835448 0.019937 0.078966 0.057518 22.165767 4.356917 22.866445 0.177024 -0.020465 -0.095062 -38.204028 9.008040 -53.122541 -46.899586 -20.673381 -37.836297 -0.000002 -0.000005 -0.000001 0.021770 -0.038291 0.012954 0.000002 -0.000000 0.000001 -0.000003 -0.000006 0.000003 0.000002 0.000004 -0.000000 -0.000001 -0.000002 0.000001 -0.009090 -0.002348 -0.024224 -0.000001 -0.000002 0.000003 -0.000003 0.000002 0.000001 0.000002 -0.000003 -0.000002 0.032823 -0.025104 0.012281 0.000001 -0.000000 0.000005 0.000001 0.000003 -0.000003 -0.000003 0.000000 0.000001 -0.000002 -0.000008 0.000002 0.039230 -0.011402 0.008390 0.000003 0.000001 0.000004 0.000002 0.000002 -0.000000 -0.000002 0.000001 0.000003 0.000000 -0.000002 0.000003 0.043417 0.002450 0.002889 -0.000002 0.000001 -0.000002 0.000001 -0.000003 -0.000000 0.000005 0.000002 -0.000001 -0.000000 -0.000001 -0.000000 -0.016662 0.078957 0.057696 36.400161 5.419078 -39.884958 -0.176972 -0.020537 -0.095144 -66.525858 -30.655194 61.262036 -11.656123 9.315495 27.609624 0.000003 -0.000003 0.000003 -0.021773 -0.038278 0.012988 0.000003 -0.000002 0.000002 -0.000001 -0.000001 -0.000003 0.000004 -0.000002 -0.000005 -0.000000 0.000000 0.000003 0.009114 -0.002381 -0.024212 -0.000002 0.000002 -0.000002 0.000000 -0.000003 -0.000002 0.000002 -0.000003 -0.000003 -0.032828 -0.025095 0.012286 0.000001 -0.000000 -0.000003 0.000001 0.000001 -0.000003 0.000001 0.000003 -0.000000 -0.000001 0.000003 -0.000003 -0.039192 -0.011488 0.008390 0.000000 0.000001 0.000003 0.000001 0.000001 -0.000003 0.000002 -0.000006 -0.000000 -0.000002 -0.000003 -0.000003 -0.043421 0.002443 0.002844 -0.000003 0.000002 0.000000 -0.000000 0.000007 -0.000003 -0.000003 0.000000 0.000002 -0.000002 -0.000002 0.000004 0.000000 0.000000 -0.000000 -1.867193 -0.973308 10.331708 -71.993513 -0.263538 0.030064 40.901707 -1.398456 14.261021 -0.000002 -0.000001 -0.000000 -0.000002 0.000007 -0.000003 0.000000 -0.000001 -0.000002 -0.038000 -0.085200 0.016200 -0.000002 -0.000000 -0.000000 0.000000 0.000000 -0.000000 -1.858390 -0.971606 11.566046 -34.752665 -0.068110 -3.644232 40.811357 -0.686169 6.941101 -0.000002 0.000003 -0.000004 -0.000004 0.000004 -0.000002 0.000000 -0.000000 0.000000 0.038000 -0.085200 0.016200 -0.000000 0.000004 -0.000005 
-0.007029 0.278904 -0.022085 49.969708 35.968872 -46.479284 -0.000003 0.000001 -0.000001 0.000003 -0.000003 0.000004 0.000002 -0.000003 0.000003 0.000001 0.000001 0.000002 0.000924 0.155148 0.009274 7.955434 -0.012054 -5.743761 0.019937 0.078966 0.057518 22.204177 4.315038 22.555267 0.177025 -0.020465 -0.095062 -37.388835 8.793542 -52.774450 -46.679917 -23.043861 -35.044082 0.000001 0.000001 0.000001 0.021770 -0.038291 0.012954 -0.000002 0.000000 -0.000002 -0.000001 -0.000001 -0.000000 0.000001 0.000003 0.000005 0.000003 0.000000 -0.000001 -0.009090 -0.002348 -0.024223 0.000001 -0.000003 -0.000001 -0.000000 0.000002 -0.000002 0.000002 0.000006 -0.000004 0.032823 -0.025104 0.012281 -0.000004 -0.000002 0.000004 -0.000001 0.000000 -0.000007 -0.000001 0.000002 -0.000000 -0.000002 -0.000000 0.000005 0.039230 -0.011402 0.008390 -0.000004 -0.000000 0.000006 0.000002 0.000002 0.000001 0.000001 0.000002 0.000003 0.000001 -0.000002 0.000003 0.043417 0.002450 0.002889 -0.000005 -0.000003 -0.000002 -0.000001 -0.000001 -0.000002 -0.000001 -0.000003 0.000002 0.000000 -0.000005 -0.000001 -0.016662 0.078957 0.057696 36.194470 5.291579 -39.457931 -0.176972 -0.020537 -0.095144 -66.282280 -28.341375 59.713735 -12.730195 10.405292 24.631657 0.000002 0.000002 0.000003 -0.021773 -0.038278 0.012988 -0.000000 0.000003 -0.000007 0.000000 -0.000001 0.000000 -0.000000 0.000001 -0.000008 0.000000 -0.000002 0.000003 0.009113 -0.002381 -0.024211 0.000002 -0.000001 0.000002 0.000001 -0.000003 0.000002 0.000001 -0.000001 -0.000003 -0.032828 -0.025095 0.012286 -0.000001 0.000002 -0.000001 0.000001 0.000003 -0.000003 0.000001 0.000003 -0.000000 -0.000003 0.000003 -0.000004 -0.039192 -0.011488 0.008390 0.000002 0.000002 -0.000002 -0.000004 0.000007 0.000000 0.000001 -0.000003 -0.000000 -0.000001 -0.000003 -0.000000 -0.043421 0.002443 0.002844 -0.000001 0.000004 -0.000001 -0.000002 0.000004 -0.000001 -0.000001 -0.000005 0.000002 -0.000000 -0.000003 -0.000001 0.000000 0.000000 -0.000000 -1.857140 -0.987279 10.512584 -71.822663 -0.305531 -0.529457 39.303682 -1.406425 14.343957 0.000002 0.000003 -0.000001 0.000000 0.000002 -0.000001 0.000000 -0.000000 -0.000003 -0.038000 -0.085200 0.016200 0.000000 -0.000001 -0.000004 0.000000 0.000000 -0.000000 -1.848911 -0.985671 11.746914 -32.853131 0.028646 -2.263007 39.044264 -0.631842 6.389151 0.000000 0.000000 -0.000002 0.000005 -0.000003 0.000001 0.000003 -0.000000 -0.000000 0.038000 -0.085200 0.016200 -0.000003 -0.000002 0.000002 
